<svg width="28" height="28" viewBox="0 0 28 28" fill="none" xmlns="http://www.w3.org/2000/svg">
<rect width="28" height="28" rx="8" fill="url(#paint0_linear_248_3387)"/>
<path d="M20.1251 5.57813C20.471 5.57823 20.8124 5.65646 21.1239 5.80698C21.4353 5.9575 21.7087 6.17642 21.9237 6.4474C22.1387 6.71838 22.2897 7.03442 22.3655 7.37193C22.4413 7.70944 22.4398 8.05971 22.3613 8.39658C22.2827 8.73346 22.1291 9.04824 21.9119 9.31743C21.6946 9.58662 21.4194 9.80327 21.1067 9.95121C20.7941 10.0992 20.452 10.1746 20.1061 10.1718C19.7602 10.169 19.4194 10.0882 19.1091 9.9353L16.6239 12.4197C16.9026 12.8807 17.0626 13.422 17.0626 14C17.0626 14.3744 16.9952 14.7335 16.8727 15.0642L18.8228 16.7011C19.2691 16.3943 19.8096 16.2552 20.3486 16.3082C20.8876 16.3612 21.3906 16.603 21.7686 16.9909C22.1467 17.3788 22.3755 17.8878 22.4146 18.428C22.4538 18.9682 22.3008 19.5049 21.9826 19.9432C21.6645 20.3815 21.2016 20.6934 20.6759 20.8235C20.1501 20.9537 19.5953 20.894 19.1093 20.6547C18.6234 20.4155 18.2376 20.0123 18.0201 19.5162C17.8027 19.0202 17.7675 18.4632 17.9209 17.9437L15.9915 16.326C15.4563 16.7853 14.7604 17.0625 14.0001 17.0625C13.4221 17.0625 12.8823 16.9017 12.4206 16.6246L11.2645 17.7799C11.6487 18.4186 11.7867 19.1756 11.6528 19.9088C11.5188 20.642 11.122 21.3012 10.5368 21.7629C9.95155 22.2245 9.21805 22.4568 8.47378 22.4163C7.7295 22.3758 7.02554 22.0653 6.49385 21.5429C5.96215 21.0205 5.63922 20.3222 5.58558 19.5787C5.53194 18.8353 5.75128 18.0978 6.20249 17.5045C6.65369 16.9112 7.30578 16.5028 8.03654 16.3559C8.76729 16.209 9.52654 16.3337 10.172 16.7065L11.3472 15.5312C11.0781 15.0659 10.9367 14.5376 10.9376 14C10.9376 13.4189 11.0991 12.8761 11.3801 12.4136L10.2018 11.2759C9.56054 11.6559 8.80269 11.7889 8.07033 11.65C7.33797 11.5112 6.68139 11.11 6.22367 10.5217C5.76594 9.9334 5.5385 9.19834 5.58397 8.45433C5.62944 7.71031 5.9447 7.00842 6.47066 6.48023C6.99662 5.95203 7.69717 5.63379 8.44098 5.58517C9.1848 5.53654 9.92081 5.76086 10.5111 6.21609C11.1013 6.67131 11.5053 7.32618 11.6472 8.05794C11.7892 8.7897 11.6594 9.54812 11.2821 10.191L12.4765 11.3425C12.9401 11.0763 13.4655 10.9366 14.0001 10.9375C14.5582 10.9375 15.0812 11.0868 15.5313 11.3471L18.0395 8.83892C17.8777 8.48889 17.8066 8.10374 17.8328 7.719C17.859 7.33426 17.9816 6.9623 18.1894 6.63743C18.3972 6.31256 18.6834 6.04523 19.0217 5.8601C19.36 5.67497 19.7395 5.578 20.1251 5.57813ZM8.64072 17.8281C8.23461 17.8281 7.84513 17.9895 7.55797 18.2766C7.2708 18.5638 7.10947 18.9533 7.10947 19.3594C7.10947 19.7655 7.2708 20.155 7.55797 20.4421C7.84513 20.7293 8.23461 20.8906 8.64072 20.8906C9.04684 20.8906 9.43632 20.7293 9.72348 20.4421C10.0106 20.155 10.172 19.7655 10.172 19.3594C10.172 18.9533 10.0106 18.5638 9.72348 18.2766C9.43632 17.9895 9.04684 17.8281 8.64072 17.8281ZM20.1251 17.8281C19.922 17.8281 19.7273 17.9088 19.5837 18.0524C19.4401 18.196 19.3595 18.3907 19.3595 18.5937C19.3595 18.7968 19.4401 18.9915 19.5837 19.1351C19.7273 19.2787 19.922 19.3594 20.1251 19.3594C20.3282 19.3594 20.5229 19.2787 20.6665 19.1351C20.8101 18.9915 20.8907 18.7968 20.8907 18.5937C20.8907 18.3907 20.8101 18.196 20.6665 18.0524C20.5229 17.9088 20.3282 17.8281 20.1251 17.8281ZM14.0001 12.4687C13.594 12.4687 13.2045 12.6301 12.9173 12.9172C12.6302 13.2044 12.4688 13.5939 12.4688 14C12.4688 14.4061 12.6302 14.7956 12.9173 15.0828C13.2045 15.3699 13.594 15.5312 14.0001 15.5312C14.4062 15.5312 14.7957 15.3699 15.0829 15.0828C15.37 14.7956 15.5313 14.4061 15.5313 14C15.5313 13.5939 15.37 13.2044 15.0829 12.9172C14.7957 12.6301 14.4062 12.4687 14.0001 12.4687ZM8.64072 7.10938C8.23461 7.10938 7.84513 7.2707 7.55797 7.55787C7.2708 7.84503 7.10947 8.23451 7.10947 8.64062C7.10947 9.04674 7.2708 9.43622 7.55797 9.72338C7.84513 10.0105 8.23461 10.1719 8.64072 10.1719C9.04684 10.1719 9.43632 10.0105 9.72348 9.72338C10.0106 9.43622 10.172 9.04674 10.172 8.64062C10.172 8.23451 10.0106 7.84503 9.72348 7.55787C9.43632 7.2707 9.04684 7.10938 8.64072 7.10938ZM20.1251 7.10938C19.922 7.10938 19.7273 7.19004 19.5837 7.33362C19.4401 7.4772 19.3595 7.67194 19.3595 7.875C19.3595 8.07806 19.4401 8.2728 19.5837 8.41638C19.7273 8.55996 19.922 8.64062 20.1251 8.64062C20.3282 8.64062 20.5229 8.55996 20.6665 8.41638C20.8101 8.2728 20.8907 8.07806 20.8907 7.875C20.8907 7.67194 20.8101 7.4772 20.6665 7.33362C20.5229 7.19004 20.3282 7.10938 20.1251 7.10938Z" fill="white"/>
<defs>
<linearGradient id="paint0_linear_248_3387" x1="2.98148" y1="-8.45833" x2="25.6325" y2="-5.68248" gradientUnits="userSpaceOnUse">
<stop stop-color="#3FBAFF"/>
<stop offset="1" stop-color="#142CFF"/>
</linearGradient>
</defs>
</svg>
